<svg width="200" height="200" viewBox="0 0 200 200" xmlns="http://www.w3.org/2000/svg">
  <defs>
    <linearGradient id="physics-gradient" x1="0%" y1="0%" x2="100%" y2="100%">
      <stop offset="0%" style="stop-color:#234C6A;stop-opacity:1" />
      <stop offset="100%" style="stop-color:#456882;stop-opacity:1" />
    </linearGradient>
    <linearGradient id="ai-gradient" x1="0%" y1="0%" x2="100%" y2="100%">
      <stop offset="0%" style="stop-color:#1B3C53;stop-opacity:1" />
      <stop offset="100%" style="stop-color:#E3E3E3;stop-opacity:1" />
    </linearGradient>
  </defs>
  
  <!-- Physics symbols - Atom representation -->
  <circle cx="100" cy="100" r="30" fill="url(#physics-gradient)" />
  <circle cx="100" cy="50" r="10" fill="url(#ai-gradient)" transform="rotate(0 100 100)" />
  <circle cx="100" cy="50" r="10" fill="url(#ai-gradient)" transform="rotate(120 100 100)" />
  <circle cx="100" cy="50" r="10" fill="url(#ai-gradient)" transform="rotate(240 100 100)" />

  <!-- AI neural network nodes -->
  <circle cx="60" cy="60" r="12" fill="url(#ai-gradient)" />
  <circle cx="60" cy="140" r="12" fill="url(#ai-gradient)" />
  <circle cx="140" cy="60" r="12" fill="url(#ai-gradient)" />
  <circle cx="140" cy="140" r="12" fill="url(#ai-gradient)" />
  
  <!-- Neural connections -->
  <line x1="60" y1="60" x2="60" y2="140" stroke="#E3E3E3" stroke-width="2" opacity="0.7" />
  <line x1="60" y1="60" x2="140" y2="60" stroke="#E3E3E3" stroke-width="2" opacity="0.7" />
  <line x1="60" y1="60" x2="140" y2="140" stroke="#E3E3E3" stroke-width="2" opacity="0.7" />
  <line x1="60" y1="140" x2="140" y2="60" stroke="#E3E3E3" stroke-width="2" opacity="0.7" />
  <line x1="60" y1="140" x2="140" y2="140" stroke="#E3E3E3" stroke-width="2" opacity="0.7" />
  <line x1="140" y1="60" x2="140" y2="140" stroke="#E3E3E3" stroke-width="2" opacity="0.7" />

  <!-- Brackets or structural elements representing physics -->
  <path d="M40,40 L40,60 L60,60 L60,40 Z" fill="url(#physics-gradient)" />
  <path d="M40,140 L40,160 L60,160 L60,140 Z" fill="url(#physics-gradient)" />
  <path d="M140,40 L140,60 L160,60 L160,40 Z" fill="url(#physics-gradient)" />
  <path d="M140,140 L140,160 L160,160 L160,140 Z" fill="url(#physics-gradient)" />
</svg>