<svg xmlns="http://www.w3.org/2000/svg" viewBox="0 0 240 240" width="240" height="240">
  <style>
    .physics-blue { fill: #234C6A; }
    .ai-blue { fill: #1B3C53; }
    .highlight { fill: #456882; }
    .gray { fill: #E3E3E3; }
  </style>
  
  <!-- Physics equations representation -->
  <rect x="40" y="40" width="160" height="160" rx="20" class="ai-blue" opacity="0.2"/>
  
  <!-- Wave function -->
  <path d="M40,120 Q80,80 120,120 T200,120" stroke="#234C6A" stroke-width="8" fill="none"/>
  <path d="M40,140 Q80,180 120,140 T200,140" stroke="#234C6A" stroke-width="8" fill="none"/>
  
  <!-- Energy levels -->
  <line x1="60" y1="60" x2="100" y2="60" stroke="#456882" stroke-width="4"/>
  <line x1="60" y1="100" x2="120" y2="100" stroke="#456882" stroke-width="4"/>
  <line x1="60" y1="140" x2="140" y2="140" stroke="#456882" stroke-width="4"/>
  <line x1="60" y1="180" x2="100" y2="180" stroke="#456882" stroke-width="4"/>
  
  <!-- Quantum dots -->
  <circle cx="80" cy="60" r="6" class="highlight"/>
  <circle cx="110" cy="100" r="6" class="highlight"/>
  <circle cx="125" cy="140" r="6" class="highlight"/>
  <circle cx="85" cy="180" r="6" class="highlight"/>
  
  <!-- Neural network -->
  <circle cx="180" cy="80" r="7" class="gray"/>
  <circle cx="180" cy="160" r="7" class="gray"/>
  <circle cx="140" cy="120" r="7" class="gray"/>
  
  <!-- Neural connections -->
  <line x1="180" y1="80" x2="180" y2="160" stroke="#E3E3E3" stroke-width="2"/>
  <line x1="180" y1="80" x2="140" y2="120" stroke="#E3E3E3" stroke-width="2"/>
  <line x1="180" y1="160" x2="140" y2="120" stroke="#E3E3E3" stroke-width="2"/>
</svg>